<?xml version="1.0" encoding="utf-8"?>
<!-- Generator: Adobe Illustrator 20.1.0, SVG Export Plug-In . SVG Version: 6.00 Build 0)  -->
<svg version="1.1" id="Arrow" xmlns="http://www.w3.org/2000/svg" xmlns:xlink="http://www.w3.org/1999/xlink" x="0px" y="0px"
	 viewBox="0 0 500 500" style="enable-background:new 0 0 500 500;" xml:space="preserve">
	 <style type="text/css">
	path{fill:#ffffff;}
</style>
<g>
	<path d="M359.4,156.2v-46.9C359.4,49.1,310.3,0,250,0S140.6,49.1,140.6,109.4v46.9H31.2v281.2c0,34.5,28,62.5,62.5,62.5h312.5
		c34.5,0,62.5-28,62.5-62.5V156.2H359.4z M171.9,109.4c0-43.1,35-78.1,78.1-78.1c43.1,0,78.1,35,78.1,78.1v46.9H171.9V109.4z
		 M437.5,437.5c0,17.2-14,31.2-31.2,31.2H93.8c-17.2,0-31.2-14-31.2-31.2v-250h78.1V250c0,8.6,7,15.6,15.6,15.6
		c8.6,0,15.6-7,15.6-15.6v-62.5h156.2V250c0,8.6,7,15.6,15.6,15.6c8.6,0,15.6-7,15.6-15.6v-62.5h78.1L437.5,437.5L437.5,437.5z"/>
</g>
</svg>
