<?xml version="1.0" encoding="utf-8"?>
<!-- Generator: Adobe Illustrator 20.1.0, SVG Export Plug-In . SVG Version: 6.00 Build 0)  -->
<svg version="1.1" id="Arrow" xmlns="http://www.w3.org/2000/svg" xmlns:xlink="http://www.w3.org/1999/xlink" x="0px" y="0px"
	 viewBox="0 0 500 500" style="enable-background:new 0 0 500 400;" xml:space="preserve">
	 <style type="text/css">
	path{fill:#ffffff;}
</style>
<g>
	<path d="M96.7,390C43.4,390,0,346.6,0,293.3s43.4-96.7,96.7-96.7c53.3,0,96.7,43.4,96.7,96.7S150,390,96.7,390z M96.7,211.2
		c-45.3,0-82.1,36.8-82.1,82.1s36.8,82.1,82.1,82.1c45.3,0,82.1-36.8,82.1-82.1C178.8,248.1,141.9,211.2,96.7,211.2z"/>
	<path d="M403.3,390c-53.3,0-96.7-43.4-96.7-96.7s43.4-96.7,96.7-96.7c53.3,0,96.7,43.4,96.7,96.7S456.6,390,403.3,390z
		 M403.3,211.2c-45.3,0-82.1,36.8-82.1,82.1s36.8,82.1,82.1,82.1c45.3,0,82.1-36.8,82.1-82.1C485.4,248.1,448.6,211.2,403.3,211.2z"
		/>
	<path d="M407.5,307.1c-2.8,0-5.5-1.6-6.7-4.3l-80.5-182.5c-1-2.3-0.8-4.9,0.6-6.9c1.3-2.1,3.6-3.3,6.1-3.3h62.4
		c4,0,7.3,3.3,7.3,7.3s-3.3,7.3-7.3,7.3h-51.2l76,172.3c1.6,3.7,0,8-3.7,9.6C409.4,306.9,408.4,307.1,407.5,307.1z"/>
	<path d="M240.2,300.6H96.7c-2.7,0-5.2-1.5-6.4-3.9c-1.3-2.4-1.1-5.3,0.4-7.5L180,158.6c1.4-2,3.6-3.2,6-3.2h161.3
		c2.9,0,5.5,1.7,6.7,4.4l5.2,11.8c1.2,2.7,0.6,5.8-1.4,7.9L245.5,298.3C244.1,299.8,242.2,300.6,240.2,300.6z M110.5,286.1h126.6
		l106.8-113l-1.3-3H189.9L110.5,286.1z"/>
	<path d="M240.2,300.6c-2.9,0-5.6-1.7-6.7-4.5l-73.5-176c-1.5-3.7,0.2-8,3.9-9.5c3.7-1.6,8,0.2,9.5,3.9l73.5,176.1
		c1.5,3.7-0.2,8-3.9,9.5C242.1,300.4,241.1,300.6,240.2,300.6z"/>
	<path d="M204.1,124.6h-70.2c-4,0-7.3-3.3-7.3-7.3c0-4,3.3-7.3,7.3-7.3h70.2c4,0,7.3,3.3,7.3,7.3
		C211.4,121.3,208.1,124.6,204.1,124.6z"/>
</g>
</svg>
