<?xml version="1.0" standalone="no"?>
<!DOCTYPE svg PUBLIC "-//W3C//DTD SVG 20010904//EN"
 "http://www.w3.org/TR/2001/REC-SVG-20010904/DTD/svg10.dtd">
<svg version="1.0" xmlns="http://www.w3.org/2000/svg"
 width="2480.000000pt" height="1754.000000pt" viewBox="0 0 2480.000000 1754.000000"
 preserveAspectRatio="xMidYMid meet">
<metadata>
Created by potrace 1.13, written by Peter Selinger 2001-2015
</metadata>
<g transform="translate(0.000000,1754.000000) scale(0.100000,-0.100000)"
fill="#13110d" stroke="none">
<path d="M7055 17140 l-400 -400 -3327 0 -3328 0 0 -160 0 -160 3167 0 3168 0
-885 -885 -885 -885 -2282 0 -2283 0 0 -160 0 -160 2122 0 2123 0 -885 -885
-885 -885 -1237 0 -1238 0 0 -160 0 -160 1077 0 1078 0 -1078 -1078 -1077
-1077 2 -228 3 -227 3955 3955 3955 3955 -230 0 -230 0 -400 -400z"/>
<path d="M5272 12267 l-5272 -5272 2 -228 3 -227 5500 5500 5500 5500 -230 0
-230 0 -5273 -5273z"/>
<path d="M6812 10727 l-6812 -6812 2 -228 3 -227 7040 7040 7040 7040 -230 0
-230 0 -6813 -6813z"/>
<path d="M8352 9187 l-8352 -8352 2 -228 3 -227 8580 8580 8580 8580 -230 0
-230 0 -8353 -8353z"/>
<path d="M11025 8770 l-8770 -8770 230 0 230 0 1227 1227 1228 1228 0 -1228 0
-1227 160 0 160 0 0 1388 0 1387 1070 1070 1070 1070 0 -2458 0 -2457 160 0
160 0 0 2618 0 2617 1070 1070 1070 1070 0 -3688 0 -3687 160 0 160 0 0 3848
0 3847 1070 1070 1070 1070 0 -4918 0 -4917 160 0 160 0 0 5078 0 5077 878
878 877 877 193 -193 192 -192 0 -5763 0 -5762 160 0 160 0 0 5602 0 5603
1065 -1065 1065 -1065 0 -4537 0 -4538 160 0 160 0 0 4377 0 4378 1070 -1070
1070 -1070 0 -3307 0 -3308 160 0 160 0 0 3147 0 3148 1070 -1070 1070 -1070
0 -2077 0 -2078 160 0 160 0 0 1917 0 1918 1050 -1050 1050 -1050 0 230 0 230
-4972 4972 -4973 4973 658 657 657 658 4315 -4315 4315 -4315 0 230 0 230
-4200 4200 -4200 4200 655 655 655 655 3545 -3545 3545 -3545 0 230 0 230
-3430 3430 -3430 3430 655 655 655 655 2775 -2775 2775 -2775 0 230 0 230
-2660 2660 -2660 2660 387 387 388 388 -230 0 -230 0 -8770 -8770z"/>
<path d="M23065 15810 l1730 -1730 3 227 2 228 -1502 1502 -1503 1503 -230 0
-230 0 1730 -1730z"/>
</g>
</svg>
