<?xml version="1.0" encoding="utf-8"?>
<!-- Generator: Adobe Illustrator 20.1.0, SVG Export Plug-In . SVG Version: 6.00 Build 0)  -->
<svg version="1.1" id="Layer_1" xmlns="http://www.w3.org/2000/svg" xmlns:xlink="http://www.w3.org/1999/xlink" x="0px" y="0px"
	 viewBox="0 0 1656 1620" style="enable-background:new 0 0 1656 1620;" xml:space="preserve">
<style type="text/css">
	.st0{fill:#ffffff;}
</style>
<path class="st0" d="M1503.5,1072.8c-54.8-19.1-129-35.3-215.8-48.3c1-1.3,1.6-2.6,2.6-3.6c47.3-20.4,151.3-69.7,232-141.6
	c126-112.8,123.4-216.8,98.8-284.1c-22.7-62.2-61.6-104-115-123.8c-25.9-9.7-54.4-13.6-85.5-12.3c0.3-16.8,0.3-34,0.3-50.9
	c0.3-2.9,0.6-6.2,0.6-9.1c0-57.3-62.5-97.5-196.7-126.7c-107.6-23.3-248.5-36-397.2-36c-148.4,0-288.4,12.6-394,36
	c-82.9,18.1-193.4,51.2-193.4,126.7c0,1.3,0,2.3,0.3,3.6c0,1-0.3,2.3-0.3,3.2c0,218.4,22.7,455.5,143.9,616.2
	c-89.1,12.3-165.2,28.5-222.6,47.3c-34.7,11.3-140,45.7-140,119.6c0,67.1,82,114.7,258.2,149.7c146.8,29.2,341.2,45.4,547.9,45.4
	s401.1-16.2,547.9-45.4c176.3-35,258.2-82.6,258.2-149.7C1633.8,1117.5,1535.9,1083.8,1503.5,1072.8z M423.3,925
	c-57.7-99.8-88.5-238.1-95.3-430.9c33.4,13.9,71.6,24,105.3,31.1c105.6,23,245.6,36,394,36c148.7,0,289.7-12.6,397.2-36
	c43.7-9.4,79.7-20.1,108.5-32.1c-3.9,155.2-21.4,316.9-84.9,432.5c-75.5,137.7-208.3,201.5-418,201.5
	C635.2,1127.5,502.1,1061.1,423.3,925z M1539.8,624.3c12,32.4,10.7,64.2-3.2,96.9c-13,30.5-37.3,61.9-71.9,93
	c-32.4,29.2-70,54.1-105,74.8c38.2-103,53.1-221.9,58.6-343.4C1498.4,539.1,1525.9,586.4,1539.8,624.3z M477.8,351.5
	c96.6-18.5,220.6-28.5,349.6-28.5c129.3,0,254.7,10,352.5,28.5c89.1,16.8,131.5,36,148.4,47.3c-13.3,9.1-42.8,23-98.8,36.6
	c-67.1-19.1-216.4-32.4-390.4-32.4c-181.8,0-337.3,14.6-399.2,35c-62.5-14.6-94.3-29.8-107.9-39.2
	C348.2,387.8,390,368.4,477.8,351.5z M1331.5,1258.7c-138,24.9-316.9,38.6-504.1,38.6c-187.3,0-366.1-13.6-504.1-38.6
	c-143.5-25.9-198.6-56.1-212.9-69.7c18.8-18.5,107.6-62.2,348-89.1c86.5,71,206.4,114.4,372,114.4c173.3,0,296.1-42.4,383-112.8
	c1.6,0.3,3.2,0.6,4.9,1c224.5,27.2,307.5,68.7,325.9,86.5C1530.1,1202.7,1475,1232.8,1331.5,1258.7z"/>
</svg>
