<?xml version="1.0" encoding="utf-8"?>
<!-- Generator: Adobe Illustrator 20.1.0, SVG Export Plug-In . SVG Version: 6.00 Build 0)  -->
<svg version="1.1" id="Arrow" xmlns="http://www.w3.org/2000/svg" xmlns:xlink="http://www.w3.org/1999/xlink" x="0px" y="0px"
	 viewBox="0 0 500 500" style="enable-background:new 0 0 500 500;" xml:space="preserve">
	<style type="text/css">
	path{fill:#ffffff;}
</style>
<path d="M489.7,179.9l-53.1-53.1c-6-6-14.1-9.2-22.1-9.2c-6,0-12.1,1.8-17.3,5.3c-0.7,0.2-1.9,0.3-3.5,0.3c-4,0-9.3-1.1-12.5-4.3
	c-4.4-4.4-4.8-12.7-4-16c8.2-12.3,6.7-28.9-3.9-39.5L319,9.2C313.1,3.3,305.1,0,296.9,0c-8.2,0-16.2,3.3-22.1,9.2L9.1,274.8
	c-12.2,12.2-12.2,32,0,44.2l54.3,54.4c6,6,14.1,9.1,22.1,9.1c5.8,0,11.6-1.6,16.7-4.8c0.7-0.2,1.9-0.4,3.6-0.4c4,0,9.3,1.1,12.5,4.3
	c4.4,4.4,4.8,12.9,3.9,16c-7.8,12.3-6.1,28.4,4.3,38.8l54.4,54.4c6.1,6.1,14.1,9.2,22.1,9.2s16-3,22.1-9.2l265-265
	c6-5.7,9.8-13.8,9.8-22.7C500,193.9,496,185.6,489.7,179.9 M203.1,468.8l-54.4-54.4c7.7-10.9,8.3-38.3-8.2-54.9
	c-9.6-9.6-23-13.5-34.6-13.5c-8.3,0-15.8,2-20.3,5.2l-54.3-54.3L296.9,31.2l54.3,54.3c-8.1,10.4-9,38.6,7.9,55.5
	c9.6,9.6,23,13.5,34.6,13.5c8.7,0,16.4-2.2,20.9-5.6l54.2,54.3l0,0L203.1,468.8z"/>
<path d="M101.5,283L217,398.4L398.4,217L283,101.6L101.5,283z M217,376.3L123.6,283L283,123.7l93.3,93.4L217,376.3z"/>
</svg>
